<svg width="800" height="800" viewBox="0 0 800 800" fill="none" xmlns="http://www.w3.org/2000/svg"><rect width="800" height="800" rx="52" fill="#EFF8F4"/><path d="M260 254C260 209.817 295.817 174 340 174H460C504.183 174 540 209.817 540 254V292H260V254Z" fill="#FFD7A8"/><path d="M220 308C220 279.281 243.281 256 272 256H528C556.719 256 580 279.281 580 308V564C580 621.438 533.438 668 476 668H324C266.562 668 220 621.438 220 564V308Z" fill="#F39A89"/><circle cx="338" cy="350" r="26" fill="#FFF5EB"/><circle cx="462" cy="350" r="26" fill="#FFF5EB"/><path d="M338 454C369.559 479.535 430.441 479.535 462 454" stroke="#FFF5EB" stroke-width="18" stroke-linecap="round"/></svg>
