<svg width="800" height="800" viewBox="0 0 800 800" fill="none" xmlns="http://www.w3.org/2000/svg"><rect width="800" height="800" rx="52" fill="#F8FCF2"/><path d="M274 194C274 147.608 311.608 110 358 110H442C488.392 110 526 147.608 526 194V248H274V194Z" fill="#FFE6B8"/><path d="M216 286C216 245.131 249.131 212 290 212H510C550.869 212 584 245.131 584 286V478C584 554.216 522.216 616 446 616H354C277.784 616 216 554.216 216 478V286Z" fill="#DDEFC9"/><path d="M286 616H354L322 694H256L286 616Z" fill="#DDEFC9"/><path d="M446 616H514L544 694H478L446 616Z" fill="#DDEFC9"/><circle cx="334" cy="320" r="16" fill="#FFFDF8"/><circle cx="466" cy="320" r="16" fill="#FFFDF8"/><circle cx="400" cy="396" r="24" fill="#FFFDF8"/></svg>
